<svg id="visual" viewBox="0 0 900 300" width="900" height="300" xmlns="http://www.w3.org/2000/svg" xmlns:xlink="http://www.w3.org/1999/xlink" version="1.1"><rect x="0" y="0" width="900" height="300" fill="#000b15"></rect><path d="M0 114L10 105.8C20 97.7 40 81.3 60 75.7C80 70 100 75 120 85C140 95 160 110 180 116.3C200 122.7 220 120.3 240 112.2C260 104 280 90 300 79C320 68 340 60 360 67.5C380 75 400 98 420 106C440 114 460 107 480 103.3C500 99.7 520 99.3 540 105.2C560 111 580 123 600 115.7C620 108.3 640 81.7 660 82C680 82.3 700 109.7 720 116.5C740 123.3 760 109.7 780 100.5C800 91.3 820 86.7 840 88.8C860 91 880 100 890 104.5L900 109L900 301L890 301C880 301 860 301 840 301C820 301 800 301 780 301C760 301 740 301 720 301C700 301 680 301 660 301C640 301 620 301 600 301C580 301 560 301 540 301C520 301 500 301 480 301C460 301 440 301 420 301C400 301 380 301 360 301C340 301 320 301 300 301C280 301 260 301 240 301C220 301 200 301 180 301C160 301 140 301 120 301C100 301 80 301 60 301C40 301 20 301 10 301L0 301Z" fill="#453c5b"></path><path d="M0 123L10 121C20 119 40 115 60 118.5C80 122 100 133 120 136.5C140 140 160 136 180 131.7C200 127.3 220 122.7 240 117.8C260 113 280 108 300 105.5C320 103 340 103 360 105.5C380 108 400 113 420 121.7C440 130.3 460 142.7 480 145.2C500 147.7 520 140.3 540 131.2C560 122 580 111 600 110.7C620 110.3 640 120.7 660 128.3C680 136 700 141 720 139.7C740 138.3 760 130.7 780 126.7C800 122.7 820 122.3 840 122C860 121.7 880 121.3 890 121.2L900 121L900 301L890 301C880 301 860 301 840 301C820 301 800 301 780 301C760 301 740 301 720 301C700 301 680 301 660 301C640 301 620 301 600 301C580 301 560 301 540 301C520 301 500 301 480 301C460 301 440 301 420 301C400 301 380 301 360 301C340 301 320 301 300 301C280 301 260 301 240 301C220 301 200 301 180 301C160 301 140 301 120 301C100 301 80 301 60 301C40 301 20 301 10 301L0 301Z" fill="#62446c"></path><path d="M0 142L10 148.3C20 154.7 40 167.3 60 164.5C80 161.7 100 143.3 120 143.8C140 144.3 160 163.7 180 171.7C200 179.7 220 176.3 240 175C260 173.7 280 174.3 300 166C320 157.7 340 140.3 360 141.7C380 143 400 163 420 173.7C440 184.3 460 185.7 480 183.2C500 180.7 520 174.3 540 170C560 165.7 580 163.3 600 157C620 150.7 640 140.3 660 140.5C680 140.7 700 151.3 720 158.8C740 166.3 760 170.7 780 164C800 157.3 820 139.7 840 139.8C860 140 880 158 890 167L900 176L900 301L890 301C880 301 860 301 840 301C820 301 800 301 780 301C760 301 740 301 720 301C700 301 680 301 660 301C640 301 620 301 600 301C580 301 560 301 540 301C520 301 500 301 480 301C460 301 440 301 420 301C400 301 380 301 360 301C340 301 320 301 300 301C280 301 260 301 240 301C220 301 200 301 180 301C160 301 140 301 120 301C100 301 80 301 60 301C40 301 20 301 10 301L0 301Z" fill="#844a78"></path><path d="M0 155L10 160.8C20 166.7 40 178.3 60 187.8C80 197.3 100 204.7 120 202.2C140 199.7 160 187.3 180 187C200 186.7 220 198.3 240 198.2C260 198 280 186 300 186.3C320 186.7 340 199.3 360 200.2C380 201 400 190 420 179.2C440 168.3 460 157.7 480 160.8C500 164 520 181 540 182.3C560 183.7 580 169.3 600 163.2C620 157 640 159 660 167.3C680 175.7 700 190.3 720 191.7C740 193 760 181 780 181.5C800 182 820 195 840 194.5C860 194 880 180 890 173L900 166L900 301L890 301C880 301 860 301 840 301C820 301 800 301 780 301C760 301 740 301 720 301C700 301 680 301 660 301C640 301 620 301 600 301C580 301 560 301 540 301C520 301 500 301 480 301C460 301 440 301 420 301C400 301 380 301 360 301C340 301 320 301 300 301C280 301 260 301 240 301C220 301 200 301 180 301C160 301 140 301 120 301C100 301 80 301 60 301C40 301 20 301 10 301L0 301Z" fill="#a74f7c"></path><path d="M0 206L10 208.5C20 211 40 216 60 213.8C80 211.7 100 202.3 120 204.5C140 206.7 160 220.3 180 218.7C200 217 220 200 240 191.8C260 183.7 280 184.3 300 190C320 195.7 340 206.3 360 206.2C380 206 400 195 420 192.5C440 190 460 196 480 198.5C500 201 520 200 540 203.8C560 207.7 580 216.3 600 221.3C620 226.3 640 227.7 660 222.8C680 218 700 207 720 208C740 209 760 222 780 221.2C800 220.3 820 205.7 840 202.8C860 200 880 209 890 213.5L900 218L900 301L890 301C880 301 860 301 840 301C820 301 800 301 780 301C760 301 740 301 720 301C700 301 680 301 660 301C640 301 620 301 600 301C580 301 560 301 540 301C520 301 500 301 480 301C460 301 440 301 420 301C400 301 380 301 360 301C340 301 320 301 300 301C280 301 260 301 240 301C220 301 200 301 180 301C160 301 140 301 120 301C100 301 80 301 60 301C40 301 20 301 10 301L0 301Z" fill="#c95579"></path><path d="M0 229L10 232.7C20 236.3 40 243.7 60 242C80 240.3 100 229.7 120 223C140 216.3 160 213.7 180 218C200 222.3 220 233.7 240 234.7C260 235.7 280 226.3 300 224.7C320 223 340 229 360 235.5C380 242 400 249 420 253.8C440 258.7 460 261.3 480 254.3C500 247.3 520 230.7 540 222C560 213.3 580 212.7 600 212.5C620 212.3 640 212.7 660 217C680 221.3 700 229.7 720 235.5C740 241.3 760 244.7 780 246.7C800 248.7 820 249.3 840 243.2C860 237 880 224 890 217.5L900 211L900 301L890 301C880 301 860 301 840 301C820 301 800 301 780 301C760 301 740 301 720 301C700 301 680 301 660 301C640 301 620 301 600 301C580 301 560 301 540 301C520 301 500 301 480 301C460 301 440 301 420 301C400 301 380 301 360 301C340 301 320 301 300 301C280 301 260 301 240 301C220 301 200 301 180 301C160 301 140 301 120 301C100 301 80 301 60 301C40 301 20 301 10 301L0 301Z" fill="#e75f70"></path><path d="M0 260L10 264.7C20 269.3 40 278.7 60 278.2C80 277.7 100 267.3 120 264.3C140 261.3 160 265.7 180 265.7C200 265.7 220 261.3 240 259.7C260 258 280 259 300 261.8C320 264.7 340 269.3 360 269.7C380 270 400 266 420 266.8C440 267.7 460 273.3 480 275.2C500 277 520 275 540 276.5C560 278 580 283 600 281.2C620 279.3 640 270.7 660 263.3C680 256 700 250 720 251.5C740 253 760 262 780 268.8C800 275.7 820 280.3 840 280C860 279.7 880 274.3 890 271.7L900 269L900 301L890 301C880 301 860 301 840 301C820 301 800 301 780 301C760 301 740 301 720 301C700 301 680 301 660 301C640 301 620 301 600 301C580 301 560 301 540 301C520 301 500 301 480 301C460 301 440 301 420 301C400 301 380 301 360 301C340 301 320 301 300 301C280 301 260 301 240 301C220 301 200 301 180 301C160 301 140 301 120 301C100 301 80 301 60 301C40 301 20 301 10 301L0 301Z" fill="#ff6f61"></path></svg>