<svg id="visual" viewBox="0 0 900 300" width="900" height="300" xmlns="http://www.w3.org/2000/svg" xmlns:xlink="http://www.w3.org/1999/xlink" version="1.1"><path d="M0 164L21.5 161.7C43 159.3 86 154.7 128.8 140.7C171.7 126.7 214.3 103.3 257.2 98.7C300 94 343 108 385.8 109.2C428.7 110.3 471.3 98.7 514.2 98.3C557 98 600 109 642.8 113.5C685.7 118 728.3 116 771.2 123.5C814 131 857 148 878.5 156.5L900 165L900 301L878.5 301C857 301 814 301 771.2 301C728.3 301 685.7 301 642.8 301C600 301 557 301 514.2 301C471.3 301 428.7 301 385.8 301C343 301 300 301 257.2 301C214.3 301 171.7 301 128.8 301C86 301 43 301 21.5 301L0 301Z" fill="#21cae0"></path><path d="M0 151L21.5 157.8C43 164.7 86 178.3 128.8 185.5C171.7 192.7 214.3 193.3 257.2 187.7C300 182 343 170 385.8 166.8C428.7 163.7 471.3 169.3 514.2 174.7C557 180 600 185 642.8 181.7C685.7 178.3 728.3 166.7 771.2 166C814 165.3 857 175.7 878.5 180.8L900 186L900 301L878.5 301C857 301 814 301 771.2 301C728.3 301 685.7 301 642.8 301C600 301 557 301 514.2 301C471.3 301 428.7 301 385.8 301C343 301 300 301 257.2 301C214.3 301 171.7 301 128.8 301C86 301 43 301 21.5 301L0 301Z" fill="#44d8d4"></path><path d="M0 192L21.5 185.7C43 179.3 86 166.7 128.8 161C171.7 155.3 214.3 156.7 257.2 162.8C300 169 343 180 385.8 177.8C428.7 175.7 471.3 160.3 514.2 160.8C557 161.3 600 177.7 642.8 182.7C685.7 187.7 728.3 181.3 771.2 181.5C814 181.7 857 188.3 878.5 191.7L900 195L900 301L878.5 301C857 301 814 301 771.2 301C728.3 301 685.7 301 642.8 301C600 301 557 301 514.2 301C471.3 301 428.7 301 385.8 301C343 301 300 301 257.2 301C214.3 301 171.7 301 128.8 301C86 301 43 301 21.5 301L0 301Z" fill="#71e5c3"></path><path d="M0 206L21.5 209.3C43 212.7 86 219.3 128.8 221.5C171.7 223.7 214.3 221.3 257.2 223.3C300 225.3 343 231.7 385.8 227.7C428.7 223.7 471.3 209.3 514.2 199.3C557 189.3 600 183.7 642.8 187.5C685.7 191.3 728.3 204.7 771.2 204.7C814 204.7 857 191.3 878.5 184.7L900 178L900 301L878.5 301C857 301 814 301 771.2 301C728.3 301 685.7 301 642.8 301C600 301 557 301 514.2 301C471.3 301 428.7 301 385.8 301C343 301 300 301 257.2 301C214.3 301 171.7 301 128.8 301C86 301 43 301 21.5 301L0 301Z" fill="#9fefb3"></path><path d="M0 261L21.5 253.8C43 246.7 86 232.3 128.8 229.3C171.7 226.3 214.3 234.7 257.2 242C300 249.3 343 255.7 385.8 256.7C428.7 257.7 471.3 253.3 514.2 247.7C557 242 600 235 642.8 233.5C685.7 232 728.3 236 771.2 239.3C814 242.7 857 245.3 878.5 246.7L900 248L900 301L878.5 301C857 301 814 301 771.2 301C728.3 301 685.7 301 642.8 301C600 301 557 301 514.2 301C471.3 301 428.7 301 385.8 301C343 301 300 301 257.2 301C214.3 301 171.7 301 128.8 301C86 301 43 301 21.5 301L0 301Z" fill="#cdf6a7"></path><path d="M0 288L21.5 280.2C43 272.3 86 256.7 128.8 254.5C171.7 252.3 214.3 263.7 257.2 267.5C300 271.3 343 267.7 385.8 266C428.7 264.3 471.3 264.7 514.2 265.3C557 266 600 267 642.8 269.3C685.7 271.7 728.3 275.3 771.2 273.8C814 272.3 857 265.7 878.5 262.3L900 259L900 301L878.5 301C857 301 814 301 771.2 301C728.3 301 685.7 301 642.8 301C600 301 557 301 514.2 301C471.3 301 428.7 301 385.8 301C343 301 300 301 257.2 301C214.3 301 171.7 301 128.8 301C86 301 43 301 21.5 301L0 301Z" fill="#fbfba3"></path></svg>