<svg id="visual" viewBox="0 0 900 300" width="900" height="300" xmlns="http://www.w3.org/2000/svg" xmlns:xlink="http://www.w3.org/1999/xlink" version="1.1"><path d="M0 148L13.7 147.8C27.3 147.7 54.7 147.3 82 142.8C109.3 138.3 136.7 129.7 163.8 120.8C191 112 218 103 245.2 97C272.3 91 299.7 88 327 101C354.3 114 381.7 143 409 145.3C436.3 147.7 463.7 123.3 491 114C518.3 104.7 545.7 110.3 573 120.8C600.3 131.3 627.7 146.7 654.8 150.8C682 155 709 148 736.2 140C763.3 132 790.7 123 818 127.7C845.3 132.3 872.7 150.7 886.3 159.8L900 169L900 301L886.3 301C872.7 301 845.3 301 818 301C790.7 301 763.3 301 736.2 301C709 301 682 301 654.8 301C627.7 301 600.3 301 573 301C545.7 301 518.3 301 491 301C463.7 301 436.3 301 409 301C381.7 301 354.3 301 327 301C299.7 301 272.3 301 245.2 301C218 301 191 301 163.8 301C136.7 301 109.3 301 82 301C54.7 301 27.3 301 13.7 301L0 301Z" fill="#453c5b"></path><path d="M0 172L13.7 175.2C27.3 178.3 54.7 184.7 82 184.8C109.3 185 136.7 179 163.8 167.5C191 156 218 139 245.2 144.3C272.3 149.7 299.7 177.3 327 181.5C354.3 185.7 381.7 166.3 409 157.8C436.3 149.3 463.7 151.7 491 154.5C518.3 157.3 545.7 160.7 573 168.8C600.3 177 627.7 190 654.8 195.7C682 201.3 709 199.7 736.2 194.5C763.3 189.3 790.7 180.7 818 174C845.3 167.3 872.7 162.7 886.3 160.3L900 158L900 301L886.3 301C872.7 301 845.3 301 818 301C790.7 301 763.3 301 736.2 301C709 301 682 301 654.8 301C627.7 301 600.3 301 573 301C545.7 301 518.3 301 491 301C463.7 301 436.3 301 409 301C381.7 301 354.3 301 327 301C299.7 301 272.3 301 245.2 301C218 301 191 301 163.8 301C136.7 301 109.3 301 82 301C54.7 301 27.3 301 13.7 301L0 301Z" fill="#724773"></path><path d="M0 213L13.7 210C27.3 207 54.7 201 82 199C109.3 197 136.7 199 163.8 200C191 201 218 201 245.2 204C272.3 207 299.7 213 327 207.8C354.3 202.7 381.7 186.3 409 177C436.3 167.7 463.7 165.3 491 174.5C518.3 183.7 545.7 204.3 573 215.8C600.3 227.3 627.7 229.7 654.8 219.8C682 210 709 188 736.2 186.5C763.3 185 790.7 204 818 206.3C845.3 208.7 872.7 194.3 886.3 187.2L900 180L900 301L886.3 301C872.7 301 845.3 301 818 301C790.7 301 763.3 301 736.2 301C709 301 682 301 654.8 301C627.7 301 600.3 301 573 301C545.7 301 518.3 301 491 301C463.7 301 436.3 301 409 301C381.7 301 354.3 301 327 301C299.7 301 272.3 301 245.2 301C218 301 191 301 163.8 301C136.7 301 109.3 301 82 301C54.7 301 27.3 301 13.7 301L0 301Z" fill="#a74f7c"></path><path d="M0 207L13.7 205.2C27.3 203.3 54.7 199.7 82 208C109.3 216.3 136.7 236.7 163.8 246C191 255.3 218 253.7 245.2 251.5C272.3 249.3 299.7 246.7 327 239.3C354.3 232 381.7 220 409 221C436.3 222 463.7 236 491 242.2C518.3 248.3 545.7 246.7 573 239.2C600.3 231.7 627.7 218.3 654.8 211.3C682 204.3 709 203.7 736.2 210.3C763.3 217 790.7 231 818 230.8C845.3 230.7 872.7 216.3 886.3 209.2L900 202L900 301L886.3 301C872.7 301 845.3 301 818 301C790.7 301 763.3 301 736.2 301C709 301 682 301 654.8 301C627.7 301 600.3 301 573 301C545.7 301 518.3 301 491 301C463.7 301 436.3 301 409 301C381.7 301 354.3 301 327 301C299.7 301 272.3 301 245.2 301C218 301 191 301 163.8 301C136.7 301 109.3 301 82 301C54.7 301 27.3 301 13.7 301L0 301Z" fill="#d95975"></path><path d="M0 266L13.7 260.3C27.3 254.7 54.7 243.3 82 241.3C109.3 239.3 136.7 246.7 163.8 251.8C191 257 218 260 245.2 265.2C272.3 270.3 299.7 277.7 327 279.5C354.3 281.3 381.7 277.7 409 276.2C436.3 274.7 463.7 275.3 491 275.8C518.3 276.3 545.7 276.7 573 273.2C600.3 269.7 627.7 262.3 654.8 258.3C682 254.3 709 253.7 736.2 254.3C763.3 255 790.7 257 818 256.7C845.3 256.3 872.7 253.7 886.3 252.3L900 251L900 301L886.3 301C872.7 301 845.3 301 818 301C790.7 301 763.3 301 736.2 301C709 301 682 301 654.8 301C627.7 301 600.3 301 573 301C545.7 301 518.3 301 491 301C463.7 301 436.3 301 409 301C381.7 301 354.3 301 327 301C299.7 301 272.3 301 245.2 301C218 301 191 301 163.8 301C136.7 301 109.3 301 82 301C54.7 301 27.3 301 13.7 301L0 301Z" fill="#ff6f61"></path></svg>