<svg id="visual" viewBox="0 0 900 300" width="900" height="300" xmlns="http://www.w3.org/2000/svg" xmlns:xlink="http://www.w3.org/1999/xlink" version="1.1"><rect x="0" y="0" width="900" height="300" fill="#000b15"></rect><path d="M0 123L13.7 115C27.3 107 54.7 91 82 85.2C109.3 79.3 136.7 83.7 163.8 80.8C191 78 218 68 245.2 70.7C272.3 73.3 299.7 88.7 327 99.2C354.3 109.7 381.7 115.3 409 117.5C436.3 119.7 463.7 118.3 491 115.2C518.3 112 545.7 107 573 100.5C600.3 94 627.7 86 654.8 85.2C682 84.3 709 90.7 736.2 92C763.3 93.3 790.7 89.7 818 95.2C845.3 100.7 872.7 115.3 886.3 122.7L900 130L900 301L886.3 301C872.7 301 845.3 301 818 301C790.7 301 763.3 301 736.2 301C709 301 682 301 654.8 301C627.7 301 600.3 301 573 301C545.7 301 518.3 301 491 301C463.7 301 436.3 301 409 301C381.7 301 354.3 301 327 301C299.7 301 272.3 301 245.2 301C218 301 191 301 163.8 301C136.7 301 109.3 301 82 301C54.7 301 27.3 301 13.7 301L0 301Z" fill="#453c5b"></path><path d="M0 71L13.7 72.3C27.3 73.7 54.7 76.3 82 82.8C109.3 89.3 136.7 99.7 163.8 98.3C191 97 218 84 245.2 87.2C272.3 90.3 299.7 109.7 327 126.3C354.3 143 381.7 157 409 151.7C436.3 146.3 463.7 121.7 491 112.3C518.3 103 545.7 109 573 112.7C600.3 116.3 627.7 117.7 654.8 112.5C682 107.3 709 95.7 736.2 95.3C763.3 95 790.7 106 818 113.7C845.3 121.3 872.7 125.7 886.3 127.8L900 130L900 301L886.3 301C872.7 301 845.3 301 818 301C790.7 301 763.3 301 736.2 301C709 301 682 301 654.8 301C627.7 301 600.3 301 573 301C545.7 301 518.3 301 491 301C463.7 301 436.3 301 409 301C381.7 301 354.3 301 327 301C299.7 301 272.3 301 245.2 301C218 301 191 301 163.8 301C136.7 301 109.3 301 82 301C54.7 301 27.3 301 13.7 301L0 301Z" fill="#69456f"></path><path d="M0 194L13.7 184.8C27.3 175.7 54.7 157.3 82 157.2C109.3 157 136.7 175 163.8 178.5C191 182 218 171 245.2 160.7C272.3 150.3 299.7 140.7 327 142.3C354.3 144 381.7 157 409 159.2C436.3 161.3 463.7 152.7 491 147C518.3 141.3 545.7 138.7 573 146.2C600.3 153.7 627.7 171.3 654.8 172.5C682 173.7 709 158.3 736.2 160.3C763.3 162.3 790.7 181.7 818 185.2C845.3 188.7 872.7 176.3 886.3 170.2L900 164L900 301L886.3 301C872.7 301 845.3 301 818 301C790.7 301 763.3 301 736.2 301C709 301 682 301 654.8 301C627.7 301 600.3 301 573 301C545.7 301 518.3 301 491 301C463.7 301 436.3 301 409 301C381.7 301 354.3 301 327 301C299.7 301 272.3 301 245.2 301C218 301 191 301 163.8 301C136.7 301 109.3 301 82 301C54.7 301 27.3 301 13.7 301L0 301Z" fill="#924c7a"></path><path d="M0 156L13.7 165.8C27.3 175.7 54.7 195.3 82 199.7C109.3 204 136.7 193 163.8 187.5C191 182 218 182 245.2 186.2C272.3 190.3 299.7 198.7 327 204.7C354.3 210.7 381.7 214.3 409 207C436.3 199.7 463.7 181.3 491 170.5C518.3 159.7 545.7 156.3 573 161C600.3 165.7 627.7 178.3 654.8 186.7C682 195 709 199 736.2 200.5C763.3 202 790.7 201 818 202.5C845.3 204 872.7 208 886.3 210L900 212L900 301L886.3 301C872.7 301 845.3 301 818 301C790.7 301 763.3 301 736.2 301C709 301 682 301 654.8 301C627.7 301 600.3 301 573 301C545.7 301 518.3 301 491 301C463.7 301 436.3 301 409 301C381.7 301 354.3 301 327 301C299.7 301 272.3 301 245.2 301C218 301 191 301 163.8 301C136.7 301 109.3 301 82 301C54.7 301 27.3 301 13.7 301L0 301Z" fill="#bc527b"></path><path d="M0 204L13.7 211.7C27.3 219.3 54.7 234.7 82 231.8C109.3 229 136.7 208 163.8 204.5C191 201 218 215 245.2 215.3C272.3 215.7 299.7 202.3 327 203C354.3 203.7 381.7 218.3 409 224.8C436.3 231.3 463.7 229.7 491 229C518.3 228.3 545.7 228.7 573 225.7C600.3 222.7 627.7 216.3 654.8 214.5C682 212.7 709 215.3 736.2 222.2C763.3 229 790.7 240 818 235.7C845.3 231.3 872.7 211.7 886.3 201.8L900 192L900 301L886.3 301C872.7 301 845.3 301 818 301C790.7 301 763.3 301 736.2 301C709 301 682 301 654.8 301C627.7 301 600.3 301 573 301C545.7 301 518.3 301 491 301C463.7 301 436.3 301 409 301C381.7 301 354.3 301 327 301C299.7 301 272.3 301 245.2 301C218 301 191 301 163.8 301C136.7 301 109.3 301 82 301C54.7 301 27.3 301 13.7 301L0 301Z" fill="#e25c72"></path><path d="M0 241L13.7 247.3C27.3 253.7 54.7 266.3 82 268.2C109.3 270 136.7 261 163.8 254.3C191 247.7 218 243.3 245.2 245.2C272.3 247 299.7 255 327 255.5C354.3 256 381.7 249 409 252.5C436.3 256 463.7 270 491 274.3C518.3 278.7 545.7 273.3 573 266.5C600.3 259.7 627.7 251.3 654.8 250.7C682 250 709 257 736.2 256.2C763.3 255.3 790.7 246.7 818 247C845.3 247.3 872.7 256.7 886.3 261.3L900 266L900 301L886.3 301C872.7 301 845.3 301 818 301C790.7 301 763.3 301 736.2 301C709 301 682 301 654.8 301C627.7 301 600.3 301 573 301C545.7 301 518.3 301 491 301C463.7 301 436.3 301 409 301C381.7 301 354.3 301 327 301C299.7 301 272.3 301 245.2 301C218 301 191 301 163.8 301C136.7 301 109.3 301 82 301C54.7 301 27.3 301 13.7 301L0 301Z" fill="#ff6f61"></path></svg>